<?xml version="1.0" encoding="UTF-8"?>
<svg width="24px" height="24px" viewBox="0 0 24 24" version="1.1" xmlns="http://www.w3.org/2000/svg" xmlns:xlink="http://www.w3.org/1999/xlink">
    <title>btn_IPuniverse</title>
    <g id="보드" stroke="none" stroke-width="1" fill="none" fill-rule="evenodd">
        <g id="작품홈_좌우버튼-roll-over" transform="translate(-886.000000, -10.000000)" fill="#FFFFFF">
            <g id="Group-4" transform="translate(-128.000000, -20.000000)">
                <g id="GNB" transform="translate(127.000000, 20.000000)">
                    <g id="btn_IPuniverse" transform="translate(887.000000, 10.000000)">
                        <path d="M22,18 L22,20 L8,20 L8,18 L22,18 Z M6,18 L6,20 L2,20 L2,18 L6,18 Z M16,11 L16,13 L2,13 L2,11 L16,11 Z M22,11 L22,13 L18,13 L18,11 L22,11 Z M22,4 L22,6 L8,6 L8,4 L22,4 Z M6,4 L6,6 L2,6 L2,4 L6,4 Z" id="Combined-Shape"></path>
                    </g>
                </g>
            </g>
        </g>
    </g>
</svg>